<?xml version="1.0" encoding="UTF-8" standalone="no"?>
<!-- Created with Inkscape (http://www.inkscape.org/) -->

<svg
   xmlns:dc="http://purl.org/dc/elements/1.1/"
   xmlns:cc="http://creativecommons.org/ns#"
   xmlns:rdf="http://www.w3.org/1999/02/22-rdf-syntax-ns#"
   xmlns:svg="http://www.w3.org/2000/svg"
   xmlns="http://www.w3.org/2000/svg"
   xmlns:xlink="http://www.w3.org/1999/xlink"
   xmlns:sodipodi="http://sodipodi.sourceforge.net/DTD/sodipodi-0.dtd"
   xmlns:inkscape="http://www.inkscape.org/namespaces/inkscape"
   width="768"
   height="1280"
   id="svg2"
   version="1.1"
   inkscape:version="0.48.4 r9939"
   sodipodi:docname="Mockup II.svg">
  <defs
     id="defs4">
    <filter
       id="filter3971"
       style="color-interpolation-filters:sRGB;"
       inkscape:label="Drop Shadow">
      <feFlood
         id="feFlood3973"
         flood-opacity="0.4"
         flood-color="rgb(0,0,0)"
         result="flood" />
      <feComposite
         id="feComposite3975"
         in2="SourceGraphic"
         in="flood"
         operator="in"
         result="composite1" />
      <feGaussianBlur
         id="feGaussianBlur3977"
         in="composite"
         stdDeviation="10"
         result="blur" />
      <feOffset
         id="feOffset3979"
         dx="2"
         dy="2"
         result="offset" />
      <feComposite
         id="feComposite3981"
         in2="offset"
         in="SourceGraphic"
         operator="over"
         result="composite2" />
    </filter>
    <filter
       inkscape:collect="always"
       id="filter4559"
       x="-0.20571173"
       width="1.4114235"
       y="-0.28800501"
       height="1.57601">
      <feGaussianBlur
         inkscape:collect="always"
         stdDeviation="35.903125"
         id="feGaussianBlur4561" />
    </filter>
  </defs>
  <sodipodi:namedview
     id="base"
     pagecolor="#ffffff"
     bordercolor="#666666"
     borderopacity="1.0"
     inkscape:pageopacity="0.0"
     inkscape:pageshadow="2"
     inkscape:zoom="0.47304688"
     inkscape:cx="103.08369"
     inkscape:cy="500.15963"
     inkscape:document-units="px"
     inkscape:current-layer="g4178"
     showgrid="false"
     inkscape:snap-bbox="true"
     inkscape:snap-page="true"
     inkscape:object-paths="true"
     inkscape:snap-intersection-paths="true"
     inkscape:object-nodes="true"
     inkscape:snap-smooth-nodes="true"
     inkscape:snap-midpoints="true"
     inkscape:window-width="1600"
     inkscape:window-height="837"
     inkscape:window-x="-8"
     inkscape:window-y="1912"
     inkscape:window-maximized="1" />
  <metadata
     id="metadata7">
    <rdf:RDF>
      <cc:Work
         rdf:about="">
        <dc:format>image/svg+xml</dc:format>
        <dc:type
           rdf:resource="http://purl.org/dc/dcmitype/StillImage" />
        <dc:title></dc:title>
      </cc:Work>
    </rdf:RDF>
  </metadata>
  <g
     inkscape:groupmode="layer"
     id="layer2"
     inkscape:label="Backdrop"
     style="display:inline">
    <use
       x="0"
       y="0"
       xlink:href="#use3995"
       id="use4025"
       transform="matrix(1,0,0,-1,1e-5,1331.7458)"
       width="768"
       height="1280"
       style="stroke:#000000;stroke-opacity:1" />
    <use
       x="0"
       y="0"
       xlink:href="#use3991"
       id="use3995"
       transform="translate(-342.7055,0)"
       width="768"
       height="1280"
       style="stroke:#000000;stroke-opacity:1" />
    <use
       x="0"
       y="0"
       xlink:href="#use3997"
       id="use4001"
       transform="translate(-114.23518,0)"
       width="768"
       height="1280"
       style="stroke:#000000;stroke-opacity:1" />
    <use
       x="0"
       y="0"
       xlink:href="#use4001"
       id="use4031"
       transform="matrix(1,0,0,-1,1e-5,1331.7458)"
       width="768"
       height="1280"
       style="stroke:#000000;stroke-opacity:1" />
    <use
       x="0"
       y="0"
       xlink:href="#path3769-1"
       id="use4013"
       transform="matrix(1,0,0,-1,1e-5,1331.7458)"
       width="768"
       height="1280"
       style="stroke:#000000;stroke-opacity:1" />
    <use
       x="0"
       y="0"
       xlink:href="#use3997"
       id="use4027"
       transform="matrix(1,0,0,-1,1e-5,1331.7458)"
       width="768"
       height="1280"
       style="stroke:#000000;stroke-opacity:1" />
    <use
       x="0"
       y="0"
       xlink:href="#path3769-1"
       id="use3983"
       transform="matrix(1,0,0,-1,57.1176,1193.6776)"
       width="768"
       height="1280"
       style="stroke:#000000;stroke-opacity:1" />
    <use
       x="0"
       y="0"
       xlink:href="#use3983"
       id="use4015"
       transform="matrix(1,0,0,-1,1e-5,1331.7458)"
       width="768"
       height="1280"
       style="stroke:#000000;stroke-opacity:1" />
    <use
       x="0"
       y="0"
       xlink:href="#use3993"
       id="use3997"
       transform="translate(-342.7055,0)"
       width="768"
       height="1280"
       style="stroke:#000000;stroke-opacity:1" />
    <path
       sodipodi:nodetypes="cccc"
       inkscape:connector-curvature="0"
       id="path3769-1"
       d="m 450.3133,527.80473 -114.23518,0 57.11758,138.06819 z"
       style="fill:#ffffff;fill-opacity:1;stroke:#000000;display:inline;stroke-opacity:1" />
    <use
       x="0"
       y="0"
       xlink:href="#path3769-1"
       id="use3987"
       transform="translate(114.23516,0)"
       width="768"
       height="1280"
       style="stroke:#000000;stroke-opacity:1" />
    <use
       x="0"
       y="0"
       xlink:href="#use3989"
       id="use3993"
       transform="translate(114.23516,0)"
       width="768"
       height="1280"
       style="stroke:#000000;stroke-opacity:1" />
    <use
       x="0"
       y="0"
       xlink:href="#use3999"
       id="use4003"
       transform="translate(-114.23518,5e-5)"
       width="768"
       height="1280"
       style="stroke:#000000;stroke-opacity:1" />
    <use
       x="0"
       y="0"
       xlink:href="#use3993"
       id="use4023"
       transform="matrix(1,0,0,-1,1e-5,1331.7458)"
       width="768"
       height="1280"
       style="stroke:#000000;stroke-opacity:1" />
    <use
       x="0"
       y="0"
       xlink:href="#use3991"
       id="use4082"
       transform="translate(-1e-5,-276.13634)"
       width="768"
       height="1280"
       style="stroke:#000000;stroke-opacity:1" />
    <use
       x="0"
       y="0"
       xlink:href="#use3993"
       id="use4084"
       transform="translate(-1e-5,-276.13634)"
       width="768"
       height="1280"
       style="stroke:#000000;stroke-opacity:1" />
    <use
       x="0"
       y="0"
       xlink:href="#use4003"
       id="use4094"
       transform="translate(-1e-5,-276.13634)"
       width="768"
       height="1280"
       style="stroke:#000000;stroke-opacity:1" />
    <use
       x="0"
       y="0"
       xlink:href="#use4007"
       id="use4098"
       transform="translate(-1e-5,-276.13634)"
       width="768"
       height="1280"
       style="stroke:#000000;stroke-opacity:1" />
    <use
       x="0"
       y="0"
       xlink:href="#use4009"
       id="use4100"
       transform="translate(-1e-5,-276.13634)"
       width="768"
       height="1280"
       style="stroke:#000000;stroke-opacity:1" />
    <use
       x="0"
       y="0"
       xlink:href="#use4011"
       id="use4102"
       transform="translate(-1e-5,-276.13634)"
       width="768"
       height="1280"
       style="stroke:#000000;stroke-opacity:1" />
    <use
       x="0"
       y="0"
       xlink:href="#use4041"
       id="use4132"
       transform="translate(-1e-5,-276.13634)"
       width="768"
       height="1280"
       style="stroke:#000000;stroke-opacity:1" />
    <use
       x="0"
       y="0"
       xlink:href="#use4100"
       id="use4220"
       transform="translate(-6.8455451e-7,552.27268)"
       width="768"
       height="1280"
       style="stroke:#000000;stroke-opacity:1" />
    <use
       x="0"
       y="0"
       xlink:href="#use4102"
       id="use4222"
       transform="translate(-6.8455451e-7,552.27268)"
       width="768"
       height="1280"
       style="stroke:#000000;stroke-opacity:1" />
    <use
       x="0"
       y="0"
       xlink:href="#use4124"
       id="use4244"
       transform="translate(-6.8455451e-7,552.27268)"
       width="768"
       height="1280"
       style="stroke:#000000;stroke-opacity:1" />
    <use
       x="0"
       y="0"
       xlink:href="#use4128"
       id="use4248"
       transform="translate(-6.8455451e-7,552.27268)"
       width="768"
       height="1280"
       style="stroke:#000000;stroke-opacity:1" />
    <use
       x="0"
       y="0"
       xlink:href="#use4130"
       id="use4250"
       transform="translate(-6.8455451e-7,552.27268)"
       width="768"
       height="1280"
       style="stroke:#000000;stroke-opacity:1" />
    <use
       x="0"
       y="0"
       xlink:href="#use4132"
       id="use4252"
       transform="translate(-6.8455451e-7,552.27268)"
       width="768"
       height="1280"
       style="stroke:#000000;stroke-opacity:1" />
    <use
       x="0"
       y="0"
       xlink:href="#use3991"
       id="use4007"
       transform="translate(114.23516,0)"
       width="768"
       height="1280"
       style="stroke:#000000;stroke-opacity:1" />
    <use
       x="0"
       y="0"
       xlink:href="#use4005"
       id="use4009"
       transform="translate(-114.23518,0)"
       width="768"
       height="1280"
       style="stroke:#000000;stroke-opacity:1" />
    <use
       x="0"
       y="0"
       xlink:href="#use3993"
       id="use4011"
       transform="translate(114.23512,0)"
       width="768"
       height="1280"
       style="stroke:#000000;stroke-opacity:1" />
    <use
       x="0"
       y="0"
       xlink:href="#use4003"
       id="use4033"
       transform="matrix(1,0,0,-1,1e-5,1331.7458)"
       width="768"
       height="1280"
       style="stroke:#000000;stroke-opacity:1" />
    <use
       x="0"
       y="0"
       xlink:href="#use4007"
       id="use4037"
       transform="matrix(1,0,0,-1,1e-5,1331.7458)"
       width="768"
       height="1280"
       style="stroke:#000000;stroke-opacity:1" />
    <use
       x="0"
       y="0"
       xlink:href="#use4009"
       id="use4039"
       transform="matrix(1,0,0,-1,1e-5,1331.7458)"
       width="768"
       height="1280"
       style="stroke:#000000;stroke-opacity:1" />
    <use
       x="0"
       y="0"
       xlink:href="#use4011"
       id="use4041"
       transform="matrix(1,0,0,-1,1e-5,1331.7458)"
       width="768"
       height="1280"
       style="stroke:#000000;stroke-opacity:1" />
    <use
       x="0"
       y="0"
       xlink:href="#path3769-1"
       id="use4074"
       transform="translate(-1e-5,-276.13634)"
       width="768"
       height="1280"
       style="stroke:#000000;stroke-opacity:1" />
    <use
       x="0"
       y="0"
       xlink:href="#use3983"
       id="use4076"
       transform="translate(-1e-5,-276.13634)"
       width="768"
       height="1280"
       style="stroke:#000000;stroke-opacity:1" />
    <use
       x="0"
       y="0"
       xlink:href="#use3987"
       id="use4078"
       transform="translate(-1e-5,-276.13634)"
       width="768"
       height="1280"
       style="stroke:#000000;stroke-opacity:1" />
    <use
       x="0"
       y="0"
       xlink:href="#use3989"
       id="use4080"
       transform="translate(-1e-5,-276.13634)"
       width="768"
       height="1280"
       style="stroke:#000000;stroke-opacity:1" />
    <use
       x="0"
       y="0"
       xlink:href="#use3995"
       id="use4086"
       transform="translate(-1e-5,-276.13634)"
       width="768"
       height="1280"
       style="stroke:#000000;stroke-opacity:1" />
    <use
       x="0"
       y="0"
       xlink:href="#use3997"
       id="use4088"
       transform="translate(-1e-5,-276.13634)"
       width="768"
       height="1280"
       style="stroke:#000000;stroke-opacity:1" />
    <use
       x="0"
       y="0"
       xlink:href="#use3999"
       id="use4090"
       transform="translate(-1e-5,-276.13634)"
       width="768"
       height="1280"
       style="stroke:#000000;stroke-opacity:1" />
    <use
       x="0"
       y="0"
       xlink:href="#use4005"
       id="use4096"
       transform="translate(-1e-5,-276.13634)"
       width="768"
       height="1280"
       style="stroke:#000000;stroke-opacity:1" />
    <use
       x="0"
       y="0"
       xlink:href="#use4023"
       id="use4114"
       transform="translate(-1e-5,-276.13634)"
       width="768"
       height="1280"
       style="stroke:#000000;stroke-opacity:1" />
    <use
       x="0"
       y="0"
       xlink:href="#use4033"
       id="use4124"
       transform="translate(-1e-5,-276.13634)"
       width="768"
       height="1280"
       style="stroke:#000000;stroke-opacity:1" />
    <use
       x="0"
       y="0"
       xlink:href="#use4035"
       id="use4126"
       transform="translate(-1e-5,-276.13634)"
       width="768"
       height="1280"
       style="stroke:#000000;stroke-opacity:1" />
    <use
       x="0"
       y="0"
       xlink:href="#use4037"
       id="use4128"
       transform="translate(-1e-5,-276.13634)"
       width="768"
       height="1280"
       style="stroke:#000000;stroke-opacity:1" />
    <use
       x="0"
       y="0"
       xlink:href="#use4039"
       id="use4130"
       transform="translate(-1e-5,-276.13634)"
       width="768"
       height="1280"
       style="stroke:#000000;stroke-opacity:1" />
    <use
       x="0"
       y="0"
       xlink:href="#use4084"
       id="use4204"
       transform="translate(-6.8455451e-7,552.27268)"
       width="768"
       height="1280"
       style="stroke:#000000;stroke-opacity:1" />
    <use
       x="0"
       y="0"
       xlink:href="#use4094"
       id="use4214"
       transform="translate(-6.8455451e-7,552.27268)"
       width="768"
       height="1280"
       style="stroke:#000000;stroke-opacity:1" />
    <use
       x="0"
       y="0"
       xlink:href="#use4096"
       id="use4216"
       transform="translate(-6.8455451e-7,552.27268)"
       width="768"
       height="1280"
       style="stroke:#000000;stroke-opacity:1" />
    <use
       x="0"
       y="0"
       xlink:href="#use4098"
       id="use4218"
       transform="translate(-6.8455451e-7,552.27268)"
       width="768"
       height="1280"
       style="stroke:#000000;stroke-opacity:1" />
    <use
       x="0"
       y="0"
       xlink:href="#use4108"
       id="use4228"
       transform="translate(-6.8455451e-7,552.27268)"
       width="768"
       height="1280"
       style="stroke:#000000;stroke-opacity:1" />
    <use
       x="0"
       y="0"
       xlink:href="#use4110"
       id="use4230"
       transform="translate(-6.8455451e-7,552.27268)"
       width="768"
       height="1280"
       style="stroke:#000000;stroke-opacity:1" />
    <use
       x="0"
       y="0"
       xlink:href="#use4112"
       id="use4232"
       transform="translate(-6.8455451e-7,552.27268)"
       width="768"
       height="1280"
       style="stroke:#000000;stroke-opacity:1" />
    <use
       x="0"
       y="0"
       xlink:href="#use4114"
       id="use4234"
       transform="translate(-6.8455451e-7,552.27268)"
       width="768"
       height="1280"
       style="stroke:#000000;stroke-opacity:1" />
    <use
       x="0"
       y="0"
       xlink:href="#use4120"
       id="use4240"
       transform="translate(-6.8455451e-7,552.27268)"
       width="768"
       height="1280"
       style="stroke:#000000;stroke-opacity:1" />
    <use
       x="0"
       y="0"
       xlink:href="#use4126"
       id="use4246"
       transform="translate(-6.8455451e-7,552.27268)"
       width="768"
       height="1280"
       style="stroke:#000000;stroke-opacity:1" />
    <use
       x="0"
       y="0"
       xlink:href="#use3983"
       id="use3989"
       transform="translate(114.23516,0)"
       width="768"
       height="1280"
       style="stroke:#000000;stroke-opacity:1" />
    <use
       x="0"
       y="0"
       xlink:href="#use3987"
       id="use3991"
       transform="translate(114.23516,0)"
       width="768"
       height="1280"
       style="stroke:#000000;stroke-opacity:1" />
    <use
       x="0"
       y="0"
       xlink:href="#use3995"
       id="use3999"
       transform="translate(-114.23518,0)"
       width="768"
       height="1280"
       style="stroke:#000000;stroke-opacity:1" />
    <use
       x="0"
       y="0"
       xlink:href="#use4001"
       id="use4005"
       transform="translate(-114.23518,5e-5)"
       width="768"
       height="1280"
       style="stroke:#000000;stroke-opacity:1" />
    <use
       x="0"
       y="0"
       xlink:href="#use3989"
       id="use4019"
       transform="matrix(1,0,0,-1,1e-5,1331.7458)"
       width="768"
       height="1280"
       style="stroke:#000000;stroke-opacity:1" />
    <use
       x="0"
       y="0"
       xlink:href="#use3991"
       id="use4021"
       transform="matrix(1,0,0,-1,1e-5,1331.7458)"
       width="768"
       height="1280"
       style="stroke:#000000;stroke-opacity:1" />
    <use
       x="0"
       y="0"
       xlink:href="#use4005"
       id="use4035"
       transform="matrix(1,0,0,-1,1e-5,1331.7458)"
       width="768"
       height="1280"
       style="stroke:#000000;stroke-opacity:1" />
    <use
       x="0"
       y="0"
       xlink:href="#use4013"
       id="use4104"
       transform="translate(-1e-5,-276.13634)"
       width="768"
       height="1280"
       style="stroke:#000000;stroke-opacity:1" />
    <use
       x="0"
       y="0"
       xlink:href="#use4015"
       id="use4106"
       transform="translate(-1e-5,-276.13634)"
       width="768"
       height="1280"
       style="stroke:#000000;stroke-opacity:1" />
    <use
       x="0"
       y="0"
       xlink:href="#use4017"
       id="use4108"
       transform="translate(-1e-5,-276.13634)"
       width="768"
       height="1280"
       style="stroke:#000000;stroke-opacity:1" />
    <use
       x="0"
       y="0"
       xlink:href="#use4080"
       id="use4200"
       transform="translate(-6.8455451e-7,552.27268)"
       width="768"
       height="1280"
       style="stroke:#000000;stroke-opacity:1" />
    <use
       x="0"
       y="0"
       xlink:href="#use4082"
       id="use4202"
       transform="translate(-6.8455451e-7,552.27268)"
       width="768"
       height="1280"
       style="stroke:#000000;stroke-opacity:1" />
    <use
       x="0"
       y="0"
       xlink:href="#use4001"
       id="use4092"
       transform="translate(-1e-5,-276.13634)"
       width="768"
       height="1280"
       style="stroke:#000000;stroke-opacity:1" />
    <use
       x="0"
       y="0"
       xlink:href="#use4019"
       id="use4110"
       transform="translate(-1e-5,-276.13634)"
       width="768"
       height="1280"
       style="stroke:#000000;stroke-opacity:1" />
    <use
       x="0"
       y="0"
       xlink:href="#use4021"
       id="use4112"
       transform="translate(-1e-5,-276.13634)"
       width="768"
       height="1280"
       style="stroke:#000000;stroke-opacity:1" />
    <use
       x="0"
       y="0"
       xlink:href="#use4025"
       id="use4116"
       transform="translate(-1e-5,-276.13634)"
       width="768"
       height="1280"
       style="stroke:#000000;stroke-opacity:1" />
    <use
       x="0"
       y="0"
       xlink:href="#use4027"
       id="use4118"
       transform="translate(-1e-5,-276.13634)"
       width="768"
       height="1280"
       style="stroke:#000000;stroke-opacity:1" />
    <use
       x="0"
       y="0"
       xlink:href="#use4029"
       id="use4120"
       transform="translate(-1e-5,-276.13634)"
       width="768"
       height="1280"
       style="stroke:#000000;stroke-opacity:1" />
    <use
       x="0"
       y="0"
       xlink:href="#use4031"
       id="use4122"
       transform="translate(-1e-5,-276.13634)"
       width="768"
       height="1280"
       style="stroke:#000000;stroke-opacity:1" />
    <use
       x="0"
       y="0"
       xlink:href="#use4104"
       id="use4224"
       transform="translate(-6.8455451e-7,552.27268)"
       width="768"
       height="1280"
       style="stroke:#000000;stroke-opacity:1" />
    <use
       x="0"
       y="0"
       xlink:href="#use4106"
       id="use4226"
       transform="translate(-6.8455451e-7,552.27268)"
       width="768"
       height="1280"
       style="stroke:#000000;stroke-opacity:1" />
    <use
       x="0"
       y="0"
       xlink:href="#use4116"
       id="use4236"
       transform="translate(-6.8455451e-7,552.27268)"
       width="768"
       height="1280"
       style="stroke:#000000;stroke-opacity:1" />
    <use
       x="0"
       y="0"
       xlink:href="#use4118"
       id="use4238"
       transform="translate(-6.8455451e-7,552.27268)"
       width="768"
       height="1280"
       style="stroke:#000000;stroke-opacity:1" />
    <use
       x="0"
       y="0"
       xlink:href="#use4122"
       id="use4242"
       transform="translate(-6.8455451e-7,552.27268)"
       width="768"
       height="1280"
       style="stroke:#000000;stroke-opacity:1" />
    <use
       x="0"
       y="0"
       xlink:href="#use3987"
       id="use4017"
       transform="matrix(1,0,0,-1,1e-5,1331.7458)"
       width="768"
       height="1280"
       style="stroke:#000000;stroke-opacity:1" />
    <use
       x="0"
       y="0"
       xlink:href="#use3999"
       id="use4029"
       transform="matrix(1,0,0,-1,1e-5,1331.7458)"
       width="768"
       height="1280"
       style="stroke:#000000;stroke-opacity:1" />
    <use
       x="0"
       y="0"
       xlink:href="#use4078"
       id="use4198"
       transform="translate(-6.8455451e-7,552.27268)"
       width="768"
       height="1280"
       style="stroke:#000000;stroke-opacity:1" />
    <use
       x="0"
       y="0"
       xlink:href="#use4090"
       id="use4210"
       transform="translate(-6.8455451e-7,552.27268)"
       width="768"
       height="1280"
       style="stroke:#000000;stroke-opacity:1" />
    <use
       x="0"
       y="0"
       xlink:href="#use4092"
       id="use4212"
       transform="translate(-6.8455451e-7,552.27268)"
       width="768"
       height="1280"
       style="stroke:#000000;stroke-opacity:1" />
    <use
       x="0"
       y="0"
       xlink:href="#use4074"
       id="use4194"
       transform="translate(-6.8455451e-7,552.27268)"
       width="768"
       height="1280"
       style="stroke:#000000;stroke-opacity:1" />
    <use
       x="0"
       y="0"
       xlink:href="#use4086"
       id="use4206"
       transform="translate(-6.8455451e-7,552.27268)"
       width="768"
       height="1280"
       style="stroke:#000000;stroke-opacity:1" />
    <use
       x="0"
       y="0"
       xlink:href="#use4088"
       id="use4208"
       transform="translate(-6.8455451e-7,552.27268)"
       width="768"
       height="1280"
       style="stroke:#000000;stroke-opacity:1" />
    <use
       x="0"
       y="0"
       xlink:href="#use4076"
       id="use4196"
       transform="translate(-6.8455451e-7,552.27268)"
       width="768"
       height="1280"
       style="stroke:#000000;stroke-opacity:1" />
    <use
       x="0"
       y="0"
       xlink:href="#use4082"
       id="use4266"
       transform="translate(-1.0684554e-5,-276.13634)"
       width="768"
       height="1280" />
    <use
       x="0"
       y="0"
       xlink:href="#use4084"
       id="use4268"
       transform="translate(-1.0684554e-5,-276.13634)"
       width="768"
       height="1280" />
    <use
       x="0"
       y="0"
       xlink:href="#use4094"
       id="use4270"
       transform="translate(-1.0684554e-5,-276.13634)"
       width="768"
       height="1280" />
    <use
       x="0"
       y="0"
       xlink:href="#use4098"
       id="use4272"
       transform="translate(-1.0684554e-5,-276.13634)"
       width="768"
       height="1280" />
    <use
       x="0"
       y="0"
       xlink:href="#use4100"
       id="use4274"
       transform="translate(-1.0684554e-5,-276.13634)"
       width="768"
       height="1280" />
    <use
       x="0"
       y="0"
       xlink:href="#use4102"
       id="use4276"
       transform="translate(-1.0684554e-5,-276.13634)"
       width="768"
       height="1280" />
    <use
       x="0"
       y="0"
       xlink:href="#use4132"
       id="use4278"
       transform="translate(-1.0684554e-5,-276.13634)"
       width="768"
       height="1280" />
    <use
       x="0"
       y="0"
       xlink:href="#use4074"
       id="use4280"
       transform="translate(-1.0684554e-5,-276.13634)"
       width="768"
       height="1280" />
    <use
       x="0"
       y="0"
       xlink:href="#use4076"
       id="use4282"
       transform="translate(-1.0684554e-5,-276.13634)"
       width="768"
       height="1280" />
    <use
       x="0"
       y="0"
       xlink:href="#use4078"
       id="use4284"
       transform="translate(-1.0684554e-5,-276.13634)"
       width="768"
       height="1280" />
    <use
       x="0"
       y="0"
       xlink:href="#use4080"
       id="use4286"
       transform="translate(-1.0684554e-5,-276.13634)"
       width="768"
       height="1280" />
    <use
       x="0"
       y="0"
       xlink:href="#use4086"
       id="use4288"
       transform="translate(-1.0684554e-5,-276.13634)"
       width="768"
       height="1280" />
    <use
       x="0"
       y="0"
       xlink:href="#use4088"
       id="use4290"
       transform="translate(-1.0684554e-5,-276.13634)"
       width="768"
       height="1280" />
    <use
       x="0"
       y="0"
       xlink:href="#use4090"
       id="use4292"
       transform="translate(-1.0684554e-5,-276.13634)"
       width="768"
       height="1280" />
    <use
       x="0"
       y="0"
       xlink:href="#use4096"
       id="use4294"
       transform="translate(-1.0684554e-5,-276.13634)"
       width="768"
       height="1280" />
    <use
       x="0"
       y="0"
       xlink:href="#use4114"
       id="use4296"
       transform="translate(-1.0684554e-5,-276.13634)"
       width="768"
       height="1280" />
    <use
       x="0"
       y="0"
       xlink:href="#use4124"
       id="use4298"
       transform="translate(-1.0684554e-5,-276.13634)"
       width="768"
       height="1280" />
    <use
       x="0"
       y="0"
       xlink:href="#use4126"
       id="use4300"
       transform="translate(-1.0684554e-5,-276.13634)"
       width="768"
       height="1280" />
    <use
       x="0"
       y="0"
       xlink:href="#use4128"
       id="use4302"
       transform="translate(-1.0684554e-5,-276.13634)"
       width="768"
       height="1280" />
    <use
       x="0"
       y="0"
       xlink:href="#use4130"
       id="use4304"
       transform="translate(-1.0684554e-5,-276.13634)"
       width="768"
       height="1280" />
    <use
       x="0"
       y="0"
       xlink:href="#use4104"
       id="use4306"
       transform="translate(-1.0684554e-5,-276.13634)"
       width="768"
       height="1280" />
    <use
       x="0"
       y="0"
       xlink:href="#use4106"
       id="use4308"
       transform="translate(-1.0684554e-5,-276.13634)"
       width="768"
       height="1280" />
    <use
       x="0"
       y="0"
       xlink:href="#use4108"
       id="use4310"
       transform="translate(-1.0684554e-5,-276.13634)"
       width="768"
       height="1280" />
    <use
       x="0"
       y="0"
       xlink:href="#use4092"
       id="use4312"
       transform="translate(-1.0684554e-5,-276.13634)"
       width="768"
       height="1280" />
    <use
       x="0"
       y="0"
       xlink:href="#use4110"
       id="use4314"
       transform="translate(-1.0684554e-5,-276.13634)"
       width="768"
       height="1280" />
    <use
       x="0"
       y="0"
       xlink:href="#use4112"
       id="use4316"
       transform="translate(-1.0684554e-5,-276.13634)"
       width="768"
       height="1280" />
    <use
       x="0"
       y="0"
       xlink:href="#use4116"
       id="use4318"
       transform="translate(-1.0684554e-5,-276.13634)"
       width="768"
       height="1280" />
    <use
       x="0"
       y="0"
       xlink:href="#use4118"
       id="use4320"
       transform="translate(-1.0684554e-5,-276.13634)"
       width="768"
       height="1280" />
    <use
       x="0"
       y="0"
       xlink:href="#use4120"
       id="use4322"
       transform="translate(-1.0684554e-5,-276.13634)"
       width="768"
       height="1280" />
    <use
       x="0"
       y="0"
       xlink:href="#use4122"
       id="use4324"
       transform="translate(-1.0684554e-5,-276.13634)"
       width="768"
       height="1280" />
    <use
       x="0"
       y="0"
       xlink:href="#use4220"
       id="use4326"
       transform="translate(1e-5,276.13634)"
       width="768"
       height="1280" />
    <use
       x="0"
       y="0"
       xlink:href="#use4222"
       id="use4328"
       transform="translate(1e-5,276.13634)"
       width="768"
       height="1280" />
    <use
       x="0"
       y="0"
       xlink:href="#use4244"
       id="use4330"
       transform="translate(1e-5,276.13634)"
       width="768"
       height="1280" />
    <use
       x="0"
       y="0"
       xlink:href="#use4248"
       id="use4332"
       transform="translate(1e-5,276.13634)"
       width="768"
       height="1280" />
    <use
       x="0"
       y="0"
       xlink:href="#use4250"
       id="use4334"
       transform="translate(1e-5,276.13634)"
       width="768"
       height="1280" />
    <use
       x="0"
       y="0"
       xlink:href="#use4252"
       id="use4336"
       transform="translate(1e-5,276.13634)"
       width="768"
       height="1280" />
    <use
       x="0"
       y="0"
       xlink:href="#use4204"
       id="use4338"
       transform="translate(1e-5,276.13634)"
       width="768"
       height="1280" />
    <use
       x="0"
       y="0"
       xlink:href="#use4214"
       id="use4340"
       transform="translate(1e-5,276.13634)"
       width="768"
       height="1280" />
    <use
       x="0"
       y="0"
       xlink:href="#use4216"
       id="use4342"
       transform="translate(1e-5,276.13634)"
       width="768"
       height="1280" />
    <use
       x="0"
       y="0"
       xlink:href="#use4218"
       id="use4344"
       transform="translate(1e-5,276.13634)"
       width="768"
       height="1280" />
    <use
       x="0"
       y="0"
       xlink:href="#use4228"
       id="use4346"
       transform="translate(1e-5,276.13634)"
       width="768"
       height="1280" />
    <use
       x="0"
       y="0"
       xlink:href="#use4230"
       id="use4348"
       transform="translate(1e-5,276.13634)"
       width="768"
       height="1280" />
    <use
       x="0"
       y="0"
       xlink:href="#use4232"
       id="use4350"
       transform="translate(1e-5,276.13634)"
       width="768"
       height="1280" />
    <use
       x="0"
       y="0"
       xlink:href="#use4234"
       id="use4352"
       transform="translate(1e-5,276.13634)"
       width="768"
       height="1280" />
    <use
       x="0"
       y="0"
       xlink:href="#use4240"
       id="use4354"
       transform="translate(1e-5,276.13634)"
       width="768"
       height="1280" />
    <use
       x="0"
       y="0"
       xlink:href="#use4246"
       id="use4356"
       transform="translate(1e-5,276.13634)"
       width="768"
       height="1280" />
    <use
       x="0"
       y="0"
       xlink:href="#use4200"
       id="use4358"
       transform="translate(1e-5,276.13634)"
       width="768"
       height="1280" />
    <use
       x="0"
       y="0"
       xlink:href="#use4202"
       id="use4360"
       transform="translate(1e-5,276.13634)"
       width="768"
       height="1280" />
    <use
       x="0"
       y="0"
       xlink:href="#use4224"
       id="use4362"
       transform="translate(1e-5,276.13634)"
       width="768"
       height="1280" />
    <use
       x="0"
       y="0"
       xlink:href="#use4226"
       id="use4364"
       transform="translate(1e-5,276.13634)"
       width="768"
       height="1280" />
    <use
       x="0"
       y="0"
       xlink:href="#use4236"
       id="use4366"
       transform="translate(1e-5,276.13634)"
       width="768"
       height="1280" />
    <use
       x="0"
       y="0"
       xlink:href="#use4238"
       id="use4368"
       transform="translate(1e-5,276.13634)"
       width="768"
       height="1280" />
    <use
       x="0"
       y="0"
       xlink:href="#use4242"
       id="use4370"
       transform="translate(1e-5,276.13634)"
       width="768"
       height="1280" />
    <use
       x="0"
       y="0"
       xlink:href="#use4198"
       id="use4372"
       transform="translate(1e-5,276.13634)"
       width="768"
       height="1280" />
    <use
       x="0"
       y="0"
       xlink:href="#use4210"
       id="use4374"
       transform="translate(1e-5,276.13634)"
       width="768"
       height="1280" />
    <use
       x="0"
       y="0"
       xlink:href="#use4212"
       id="use4376"
       transform="translate(1e-5,276.13634)"
       width="768"
       height="1280" />
    <use
       x="0"
       y="0"
       xlink:href="#use4194"
       id="use4378"
       transform="translate(1e-5,276.13634)"
       width="768"
       height="1280" />
    <use
       x="0"
       y="0"
       xlink:href="#use4206"
       id="use4380"
       transform="translate(1e-5,276.13634)"
       width="768"
       height="1280" />
    <use
       x="0"
       y="0"
       xlink:href="#use4208"
       id="use4382"
       transform="translate(1e-5,276.13634)"
       width="768"
       height="1280" />
    <use
       x="0"
       y="0"
       xlink:href="#use4196"
       id="use4384"
       transform="translate(1e-5,276.13634)"
       width="768"
       height="1280" />
  </g>
  <g
     inkscape:label="Layer 1"
     inkscape:groupmode="layer"
     id="layer1"
     transform="translate(0,227.63782)"
     style="display:inline">
    <path
       style="opacity:0.46699267;color:#000000;fill:#000000;fill-opacity:1;fill-rule:nonzero;stroke:none;stroke-width:1;marker:none;visibility:visible;display:inline;overflow:visible;filter:url(#filter4559);enable-background:accumulate"
       d="m 174.5625,282.76843 57.125,224.375 9.53125,37.40625 9.5,37.40625 114.25,0 L 384,507.17468 l 9.53125,37.375 9.5,37.40625 114.25,0 76.15625,-299.1875 -114.25,0 -19.03125,74.78125 -19.03125,-74.78125 -114.25,0 -19.03125,74.78125 -19.03125,-74.78125 -114.25,0 z"
       id="path4526"
       inkscape:connector-curvature="0" />
    <g
       id="g4178"
       transform="matrix(0.50344029,0,0,0.51942251,126.23857,131.68566)">
      <path
         style="color:#000000;fill:#75d3ff;fill-opacity:1;fill-rule:nonzero;stroke:none;marker:none;visibility:visible;display:inline;overflow:visible;enable-background:accumulate"
         d="m 247.27272,828.36214 151.27273,-575.99997 226.90909,0 -151.27274,575.99997 z"
         id="path3767"
         inkscape:connector-curvature="0"
         sodipodi:nodetypes="ccccc" />
      <path
         sodipodi:nodetypes="cccc"
         inkscape:connector-curvature="0"
         id="path3769"
         d="m 322.90909,252.36217 -226.909087,0 113.454537,431.99997 z"
         style="fill:#75d3ff;fill-opacity:1;stroke:none" />
      <path
         inkscape:connector-curvature="0"
         id="path3773"
         d="m 209.45454,684.36215 37.81818,144 113.45455,-431.99998 -37.81818,-143.99998 z"
         style="color:#000000;fill:#00acfc;fill-opacity:1;fill-rule:nonzero;stroke:none;stroke-width:1;marker:none;visibility:visible;display:inline;overflow:visible;enable-background:accumulate" />
      <path
         sodipodi:nodetypes="cccc"
         style="color:#000000;fill:#00699b;fill-opacity:1;fill-rule:nonzero;stroke:none;stroke-width:1;marker:none;visibility:visible;display:inline;overflow:visible;enable-background:accumulate"
         d="m 209.45454,684.36215 18.9091,72.00002 94.54545,-503.99998 z"
         id="path4039"
         inkscape:connector-curvature="0" />
      <use
         height="1024"
         width="1024"
         transform="translate(302.54547,9.0000001e-6)"
         id="use4043"
         xlink:href="#path3773"
         y="0"
         x="0" />
      <use
         height="1024"
         width="1024"
         transform="translate(302.54547,9.0000001e-6)"
         id="use4045"
         xlink:href="#path4039"
         y="0"
         x="0" />
      <use
         height="1024"
         width="1024"
         transform="translate(302.54547,9.0000001e-6)"
         id="use4047"
         xlink:href="#path3767"
         y="0"
         x="0" />
    </g>
  </g>
</svg>
